nColumns=19
nRows=50
DataType=double
version=3
OpenSimVersion=4.1
endheader
time	ground_force_1_vx	ground_force_1_vy	ground_force_1_vz	ground_force_1_px	ground_force_1_py	ground_force_1_pz	ground_force_1_mx	ground_force_1_my	ground_force_1_mz	ground_force_2_vx	ground_force_2_vy	ground_force_2_vz	ground_force_2_px	ground_force_2_py	ground_force_2_pz	ground_force_2_mx	ground_force_2_my	ground_force_2_mz
0.191667	0.624365	12.1252	-3.69743	1.07869	0	-0.159719	0	-4.64319	0	0	0	0	0.000128424	0	0.000190303	0	0	0
0.2	-6.20444	24.5852	-9.63352	1.26481	0	-0.225647	0	-3.10775	0	0	0	0	0.000128424	0	0.000190303	0	0	0
0.208333	-25.2562	64.9796	-19.8996	1.37446	0	-0.247767	0	-0.52631	0	0	0	0	0.000128424	0	0.000190303	0	0	0
0.216667	-68.2189	171.25	-34.2939	1.40105	0	-0.252505	-0	2.61646	-0	0	0	0	0.000128424	0	0.000190303	0	0	0
0.225	-134.878	367.515	-50.1197	1.4026	0	-0.254978	-0	5.5712	-0	0	0	0	0.000128424	0	0.000190303	0	0	0
0.233333	-188.711	628.017	-61.7888	1.38937	0	-0.258304	-0	7.52478	-0	0	0	0	0.000128424	0	0.000190303	0	0	0
0.241667	-196.252	916.808	-62.5584	1.35685	0	-0.263079	-0	7.87436	-0	0	0	0	0.000128424	0	0.000190303	0	0	0
0.25	-188.983	1210.26	-47.5759	1.31477	0	-0.268635	-0	6.46966	-0	0	0	0	0.000128424	0	0.000190303	0	0	0
0.258333	-204.376	1465.78	-17.8076	1.27828	0	-0.273421	-0	3.70628	-0	0	0	0	0.000128424	0	0.000190303	0	0	0
0.266667	-229.241	1655.8	16.7677	1.24859	0	-0.276733	-0	0.40051	-0	0	0	0	0.000128424	0	0.000190303	0	0	0
0.275	-231.807	1790.95	41.3344	1.21892	0	-0.279222	0	-2.52286	0	0	0	0	0.000128424	0	0.000190303	0	0	0
0.283333	-193.802	1890.63	48.0368	1.1849	0	-0.281346	0	-4.38591	0	0	0	0	0.000128424	0	0.000190303	0	0	0
0.291667	-130.53	1956.78	42.3948	1.14901	0	-0.282821	0	-4.9721	0	0	0	0	0.000128424	0	0.000190303	0	0	0
0.3	-65.7382	1980.95	35.8307	1.11447	0	-0.283187	0	-4.50659	0	0	0	0	0.000128424	0	0.000190303	0	0	0
0.308333	-0.277169	1956.39	33.6721	1.08029	0	-0.282667	0	-3.46261	0	0	0	0	0.000128424	0	0.000190303	0	0	0
0.316667	72.6751	1875.81	33.1112	1.04494	0	-0.282372	0	-2.33663	0	0	0	0	0.000128424	0	0.000190303	0	0	0
0.325	153.347	1735.79	31.0619	1.00794	0	-0.283026	0	-1.49429	0	0	0	0	0.000128424	0	0.000190303	0	0	0
0.333333	228.283	1544.94	29.0779	0.970221	0	-0.284157	0	-1.10363	0	0	0	0	0.000128424	0	0.000190303	0	0	0
0.341667	278.692	1319.23	29.5023	0.933901	0	-0.28471	0	-1.13513	0	0	0	0	0.000128424	0	0.000190303	0	0	0
0.35	296.621	1072	30.5728	0.899922	0	-0.284352	0	-1.41742	0	0	0	0	0.000128424	0	0.000190303	0	0	0
0.358333	281.235	816.172	28.1587	0.868353	0	-0.283649	0	-1.73495	0	0	0	0	0.000128424	0	0.000190303	0	0	0
0.366667	239.642	573.256	21.1215	0.838786	0	-0.282947	0	-1.92581	0	0	0	0	0.000128424	0	0.000190303	0	0	0
0.375	183.256	365.306	12.5957	0.812422	0	-0.281728	0	-1.92989	0	0	0	0	0.000128424	0	0.000190303	0	0	0
0.383333	125.202	206.825	6.21532	0.792527	0	-0.278219	0	-1.77293	0	0	0	0	0.000128424	0	0.000190303	0	0	0
0.391667	75.6056	103.046	2.8316	0.787783	0	-0.268449	0	-1.51822	0	0	0	0	0.000128424	0	0.000190303	0	0	0
0.4	38.8555	45.6409	1.16792	0.828273	0	-0.247296	0	-1.22755	0	0	0	0	0.000128424	0	0.000190303	0	0	0
0.408333	15.9258	19.0427	0.167688	0.961024	0	-0.204702	0	-0.947778	0	0	0	0	0.000128424	0	0.000190303	0	0	0
0.416667	0	0	0	0.000128424	0	0.000190303	0	0	0	0	0	0	0.000128424	0	0.000190303	0	0	0
0.425	0	0	0	0.000128424	0	0.000190303	0	0	0	0	0	0	0.000128424	0	0.000190303	0	0	0
0.433333	0	0	0	0.000128424	0	0.000190303	0	0	0	0	0	0	0.000128424	0	0.000190303	0	0	0
0.441667	0	0	0	0.000128424	0	0.000190303	0	0	0	0	0	0	0.000128424	0	0.000190303	0	0	0
0.45	0	0	0	0.000128424	0	0.000190303	0	0	0	0	0	0	0.000128424	0	0.000190303	0	0	0
0.458333	0	0	0	0.000128424	0	0.000190303	0	0	0	0	0	0	0.000128424	0	0.000190303	0	0	0
0.466667	0	0	0	0.000128424	0	0.000190303	0	0	0	0	0	0	0.000128424	0	0.000190303	0	0	0
0.475	0	0	0	0.000128424	0	0.000190303	0	0	0	0	0	0	0.000128424	0	0.000190303	0	0	0
0.483333	0	0	0	0.000128424	0	0.000190303	0	0	0	0	0	0	0.000128424	0	0.000190303	0	0	0
0.491667	0	0	0	0.000128424	0	0.000190303	0	0	0	0	0	0	0.000128424	0	0.000190303	0	0	0
0.5	0	0	0	0.000128424	0	0.000190303	0	0	0	0	0	0	0.000128424	0	0.000190303	0	0	0
0.508333	0	0	0	0.000128424	0	0.000190303	0	0	0	0	0	0	0.000128424	0	0.000190303	0	0	0
0.516667	0	0	0	0.000128424	0	0.000190303	0	0	0	0	0	0	0.000128424	0	0.000190303	0	0	0
0.525	0	0	0	0.000128424	0	0.000190303	0	0	0	-0.0194583	15.5456	-0.628623	1.32987	0	-0.302723	-0	2.66176	-0
0.533333	0	0	0	0.000128424	0	0.000190303	0	0	0	-12.3311	45.81	0.066663	1.36323	0	-0.354084	-0	1.27981	-0
0.541667	0	0	0	0.000128424	0	0.000190303	0	0	0	-43.9064	130.246	5.68087	1.37349	0	-0.364963	0	-0.887523	0
0.55	0	0	0	0.000128424	0	0.000190303	0	0	0	-101.931	301.754	19.6686	1.37532	0	-0.362673	0	-3.39375	0
0.558333	0	0	0	0.000128424	0	0.000190303	0	0	0	-166.299	550.005	41.1214	1.36855	0	-0.356357	0	-5.51939	0
0.566667	0	0	0	0.000128424	0	0.000190303	0	0	0	-196.59	830.585	60.3097	1.34489	0	-0.349668	0	-6.47607	0
0.575	0	0	0	0.000128424	0	0.000190303	0	0	0	-193.203	1122.67	62.7916	1.30437	0	-0.344104	0	-5.71131	0
0.583333	0	0	0	0.000128424	0	0.000190303	0	0	0	-191.052	1405.91	42.2421	1.26269	0	-0.339805	0	-3.17737	0
0.591667	0	0	0	0.000128424	0	0.000190303	0	0	0	-192.114	1645.04	7.1794	1.2281	0	-0.335822	-0	0.598232	-0
0.6	0	0	0	0.000128424	0	0.000190303	0	0	0	-175.272	1824.36	-26.6449	1.19614	0	-0.332162	-0	4.70372	-0
